<svg xmlns="http://www.w3.org/2000/svg" xmlns:xlink="http://www.w3.org/1999/xlink" width="1900" zoomAndPan="magnify" viewBox="0 0 1425 525.000007" height="700" preserveAspectRatio="xMidYMid meet" version="1.0"><defs><g/></defs><g fill="#ffffff" fill-opacity="1"><g transform="translate(20.609556, 415.93613)"><g><path d="M 31.828125 97.125 L 31.828125 -275.171875 L 86.875 -275.171875 L 98.734375 -248.203125 L 101.4375 -248.203125 C 107.550781 -255.753906 117.441406 -263.304688 131.109375 -270.859375 C 144.773438 -278.410156 160.960938 -282.1875 179.671875 -282.1875 C 201.972656 -282.1875 222.925781 -275.890625 242.53125 -263.296875 C 262.132812 -250.710938 277.78125 -233.359375 289.46875 -211.234375 C 301.164062 -189.117188 307.015625 -164.570312 307.015625 -137.59375 C 307.015625 -110.613281 301.164062 -86.0625 289.46875 -63.9375 C 277.78125 -41.8125 262.132812 -24.453125 242.53125 -11.859375 C 222.925781 0.722656 201.972656 7.015625 179.671875 7.015625 C 167.804688 7.015625 156.742188 5.125 146.484375 1.34375 C 136.234375 -2.425781 127.78125 -6.648438 121.125 -11.328125 C 114.476562 -16.003906 110.070312 -20.140625 107.90625 -23.734375 L 105.21875 -23.734375 L 105.21875 97.125 Z M 169.421875 -60.96875 C 180.929688 -60.96875 191.539062 -64.203125 201.25 -70.671875 C 210.96875 -77.148438 218.789062 -86.234375 224.71875 -97.921875 C 230.65625 -109.617188 233.625 -122.84375 233.625 -137.59375 C 233.625 -152.332031 230.65625 -165.546875 224.71875 -177.234375 C 218.789062 -188.929688 210.96875 -198.015625 201.25 -204.484375 C 191.539062 -210.960938 180.929688 -214.203125 169.421875 -214.203125 C 157.910156 -214.203125 147.296875 -210.960938 137.578125 -204.484375 C 127.867188 -198.015625 120.046875 -188.929688 114.109375 -177.234375 C 108.179688 -165.546875 105.21875 -152.332031 105.21875 -137.59375 C 105.21875 -122.84375 108.179688 -109.617188 114.109375 -97.921875 C 120.046875 -86.234375 127.867188 -77.148438 137.578125 -70.671875 C 147.296875 -64.203125 157.910156 -60.96875 169.421875 -60.96875 Z M 169.421875 -60.96875 "/></g></g></g><g fill="#ffffff" fill-opacity="1"><g transform="translate(298.478562, 415.93613)"><g><path d="M 31.828125 0 L 31.828125 -275.171875 L 86.875 -275.171875 L 98.734375 -248.203125 L 101.4375 -248.203125 C 106.832031 -255.390625 115.015625 -262.847656 125.984375 -270.578125 C 136.953125 -278.316406 150.171875 -282.1875 165.640625 -282.1875 C 175.359375 -282.1875 183.632812 -281.289062 190.46875 -279.5 L 190.46875 -206.109375 C 183.632812 -207.910156 174.460938 -208.8125 162.953125 -208.8125 C 145.328125 -208.8125 131.296875 -203.503906 120.859375 -192.890625 C 110.429688 -182.273438 105.21875 -167.617188 105.21875 -148.921875 L 105.21875 0 Z M 31.828125 0 "/></g></g></g><g fill="#ffffff" fill-opacity="1"><g transform="translate(449.012802, 415.93613)"><g><path d="M 292.4375 -141.90625 C 292.4375 -128.59375 291.359375 -118.34375 289.203125 -111.15625 L 91.1875 -111.15625 C 95.144531 -94.601562 102.96875 -81.648438 114.65625 -72.296875 C 126.34375 -62.941406 140.460938 -58.265625 157.015625 -58.265625 C 177.160156 -58.265625 193.523438 -65.101562 206.109375 -78.78125 L 283.265625 -78.78125 C 277.867188 -65.46875 269.328125 -52.15625 257.640625 -38.84375 C 245.953125 -25.539062 231.472656 -14.570312 214.203125 -5.9375 C 196.941406 2.695312 178.238281 7.015625 158.09375 7.015625 C 132.550781 7.015625 108.988281 0.539062 87.40625 -12.40625 C 65.820312 -25.351562 48.734375 -42.890625 36.140625 -65.015625 C 23.554688 -87.140625 17.265625 -111.332031 17.265625 -137.59375 C 17.265625 -163.125 23.648438 -187.039062 36.421875 -209.34375 C 49.191406 -231.644531 66.367188 -249.359375 87.953125 -262.484375 C 109.535156 -275.617188 132.554688 -282.1875 157.015625 -282.1875 C 181.835938 -282.1875 204.585938 -276.070312 225.265625 -263.84375 C 245.953125 -251.613281 262.316406 -234.796875 274.359375 -213.390625 C 286.410156 -191.992188 292.4375 -168.164062 292.4375 -141.90625 Z M 157.015625 -216.90625 C 141.179688 -216.90625 127.328125 -212.140625 115.453125 -202.609375 C 103.585938 -193.078125 95.5 -180.035156 91.1875 -163.484375 L 221.765625 -163.484375 C 217.441406 -179.671875 209.4375 -192.617188 197.75 -202.328125 C 186.0625 -212.046875 172.484375 -216.90625 157.015625 -216.90625 Z M 157.015625 -216.90625 "/></g></g></g><g fill="#ffffff" fill-opacity="1"><g transform="translate(712.313885, 415.93613)"><g><path d="M 144.609375 7.015625 C 122.304688 7.015625 101.351562 0.722656 81.75 -11.859375 C 62.144531 -24.453125 46.492188 -41.8125 34.796875 -63.9375 C 23.109375 -86.0625 17.265625 -110.613281 17.265625 -137.59375 C 17.265625 -164.570312 23.109375 -189.117188 34.796875 -211.234375 C 46.492188 -233.359375 62.144531 -250.710938 81.75 -263.296875 C 101.351562 -275.890625 122.304688 -282.1875 144.609375 -282.1875 C 156.472656 -282.1875 167.53125 -280.296875 177.78125 -276.515625 C 188.03125 -272.742188 196.484375 -268.519531 203.140625 -263.84375 C 209.796875 -259.164062 214.203125 -255.03125 216.359375 -251.4375 L 219.0625 -251.4375 L 219.0625 -377.6875 L 292.4375 -377.6875 L 292.4375 0 L 237.40625 0 L 225.53125 -26.984375 L 222.84375 -26.984375 C 216.726562 -19.421875 206.832031 -11.863281 193.15625 -4.3125 C 179.488281 3.238281 163.304688 7.015625 144.609375 7.015625 Z M 154.859375 -60.96875 C 166.367188 -60.96875 176.976562 -64.203125 186.6875 -70.671875 C 196.394531 -77.148438 204.21875 -86.234375 210.15625 -97.921875 C 216.09375 -109.617188 219.0625 -122.84375 219.0625 -137.59375 C 219.0625 -152.332031 216.09375 -165.546875 210.15625 -177.234375 C 204.21875 -188.929688 196.394531 -198.015625 186.6875 -204.484375 C 176.976562 -210.960938 166.367188 -214.203125 154.859375 -214.203125 C 143.347656 -214.203125 132.734375 -210.960938 123.015625 -204.484375 C 113.304688 -198.015625 105.484375 -188.929688 99.546875 -177.234375 C 93.609375 -165.546875 90.640625 -152.332031 90.640625 -137.59375 C 90.640625 -122.84375 93.609375 -109.617188 99.546875 -97.921875 C 105.484375 -86.234375 113.304688 -77.148438 123.015625 -70.671875 C 132.734375 -64.203125 143.347656 -60.96875 154.859375 -60.96875 Z M 154.859375 -60.96875 "/></g></g></g><g fill="#ffffff" fill-opacity="1"><g transform="translate(992.88072, 415.93613)"><g><path d="M 105.21875 0 L 31.828125 0 L 31.828125 -275.171875 L 105.21875 -275.171875 Z M 68.53125 -310.25 C 57.019531 -310.25 47.304688 -314.203125 39.390625 -322.109375 C 31.472656 -330.023438 27.515625 -339.738281 27.515625 -351.25 C 27.515625 -362.757812 31.472656 -372.472656 39.390625 -380.390625 C 47.304688 -388.304688 57.019531 -392.265625 68.53125 -392.265625 C 80.039062 -392.265625 89.75 -388.304688 97.65625 -380.390625 C 105.570312 -372.472656 109.53125 -362.757812 109.53125 -351.25 C 109.53125 -339.738281 105.570312 -330.023438 97.65625 -322.109375 C 89.75 -314.203125 80.039062 -310.25 68.53125 -310.25 Z M 68.53125 -310.25 "/></g></g></g><g fill="#ffffff" fill-opacity="1"><g transform="translate(1083.524459, 415.93613)"><g><path d="M 182.375 -140.28125 L 274.09375 0 L 189.921875 0 L 135.4375 -89.03125 L 80.9375 0 L 0 0 L 91.71875 -140.28125 L 5.9375 -275.171875 L 89.03125 -275.171875 L 138.671875 -192.625 L 187.765625 -275.171875 L 267.625 -275.171875 Z M 182.375 -140.28125 "/></g></g></g></svg>